# AST/ASF file generated using VICON BodyLanguage
# -----------------------------------------------
:version 1.10
:name VICON
:units
  mass 1.0
  length 0.45
  angle deg
:documentation
   .ast/.asf automatically generated from VICON data using
   VICON BodyBuilder and BodyLanguage model FoxedUp or BRILLIANT.MOD
:root
   order TX TY TZ RX RY RZ
   axis XYZ
   position 0 0 0  
   orientation 0 0 0 
:bonedata
  begin
     id 1 
     name lhipjoint
     direction 0.567149 -0.783011 0.255413 
     length 2.28399 
     axis 0 0 0  XYZ
  end
  begin
     id 2 
     name lfemur
     direction 0.34202 -0.939693 0  
     length 7.34031  
     axis 0 0 20  XYZ
    dof rx ry rz
    limits (-160.0 20.0)
           (-70.0 70.0)
           (-60.0 70.0)
  end
  begin
     id 3 
     name ltibia
     direction 0.34202 -0.939693 0   
     length 6.9833   
     axis 0 0 20   XYZ
    dof rx
    limits (-10.0 170.0)
  end
  begin
     id 4 
     name lfoot
     direction 0.136498 -0.375025 0.91691   
     length 2.33665   
     axis -90 7.62852e-016 20   XYZ
    dof rx rz
    limits (-45.0 90.0)
           (-70.0 20.0)
  end
  begin
     id 5 
     name ltoes
     direction 1.5367e-011 -4.21617e-011 1   
     length 1.15039   
     axis -90 7.62852e-016 20   XYZ
    dof rx
    limits (-90.0 20.0)
  end
  begin
     id 6 
     name rhipjoint
     direction -0.602854 -0.758518 0.247423   
     length 2.35775  
     axis 0 0 0  XYZ 
  end
  begin
     id 7 
     name rfemur
     direction -0.34202 -0.939693 0   
     length 7.43932   
     axis 0 0 -20   XYZ
    dof rx ry rz
    limits (-160.0 20.0)
           (-70.0 70.0)
           (-70.0 60.0)
  end
  begin
     id 8 
     name rtibia
     direction -0.34202 -0.939693 0   
     length 7.11893   
     axis 0 0 -20   XYZ
    dof rx
    limits (-10.0 170.0)
 end
 begin
     id 9 
     name rfoot
     direction -0.131771 -0.362037 0.922803   
     length 2.53019  
     axis -90 -7.62852e-016 -20   XYZ
    dof rx rz
    limits (-45.0 90.0)
           (-20.0 70.0)
  end
  begin
     id 10 
     name rtoes
     direction -1.53733e-011 -4.21932e-011 1   
     length 1.24596   
     axis -90 -7.62852e-016 -20   XYZ
    dof rx
    limits (-90.0 20.0)
  end
  begin
     id 11 
     name lowerback
     direction 0.0235427 0.999023 -0.0374125   
     length 2.21768   
     axis 0 0 0   XYZ
    dof rx ry rz
    limits (-20.0 45.0)
           (-30.0 30.0)
           (-30.0 30.0)
  end
  begin
     id 12 
     name upperback
     direction 0.0302156 0.996818 -0.073759   
     length 2.20352   
     axis 0 0 0   XYZ
    dof rx ry rz
    limits (-20.0 45.0)
           (-30.0 30.0)
           (-30.0 30.0)
  end
  begin
     id 13 
     name thorax
     direction 0.0187169 0.998235 -0.0563532   
     length 2.22103   
     axis 0 0 0   XYZ
    dof rx ry rz
    limits (-20.0 45.0)
           (-30.0 30.0)
           (-30.0 30.0)
  end
  begin
     id 14 
     name lowerneck
     direction -0.119528 0.987423 0.103481   
     length 1.72948   
     axis 0 0 0   XYZ
    dof rx ry rz
    limits (-20.0 45.0)
           (-30.0 30.0)
           (-30.0 30.0)
  end
  begin
     id 15 
     name upperneck
     direction 0.248049 0.963095 -0.104496   
     length 1.74979   
     axis 0 0 0   XYZ
    dof rx ry rz
    limits (-20.0 45.0)
           (-30.0 30.0)
           (-30.0 30.0)
  end
  begin
     id 16
     name head
     direction 0.0903589 0.994284 -0.056876  
     length 1.78268  
     axis 0 0 0   XYZ
    dof rx ry rz
    limits (-20.0 45.0)
           (-30.0 30.0)
           (-30.0 30.0)
  end
  begin
     id 17 
     name lclavicle
     direction 0.946008 0.242039 -0.215608  
     length 3.80783  
     axis 0 0 0   XYZ
    dof ry rz
    limits (-20.0 10.0)
           (0.0 20.0)
  end
  begin
     id 18 
     name lhumerus
     direction 1 -4.48991e-011 -2.25695e-027   
     length 4.83125   
     axis 180 -30 -90   XYZ
    dof rx ry rz
    limits (-60.0 90.0)
           (-90.0 90.0)
           (-90.0 90.0)
  end
  begin
     id 19
     name lradius
     direction 0.999991 0.00366712 -0.00211721   
     length 3.00391   
     axis 180 -30 -90   XYZ
    dof rx
    limits (-10.0 170.0)
  end
  begin
     id 20
     name lwrist
     direction 0.999991 0.00393016 -0.00141978   
     length 1.50195   
     axis -1.00488e-014 90 90   XYZ
    dof ry
    limits (-180.0 0.0)
 end
  begin
     id 21 
     name lhand
     direction 1 -4.49123e-011 2.72098e-026   
     length 1.2717   
     axis -1.73687e-014 90 90   XYZ
    dof rx rz
    limits (-90.0 90.0)
           (-45.0 45.0)
  end
  begin
     id 22 
     name lfingers
     direction 1 -4.48678e-011 5.4479e-026   
     length 1.02528   
     axis -3.47372e-014 90 90   XYZ
    dof rx
    limits (0.0 90.0)
  end
  begin
     id 23
     name lthumb
     direction 0.707107 -6.34851e-011 0.707107   
     length 1.4721   
     axis -90 45 -1.62303e-014   XYZ
    dof rx rz
    limits (-45.0 45.0)
           (-45.0 45.0)
  end
  begin
     id 24 
     name rclavicle
     direction -0.981723 0.189447 -0.0181673   
     length 3.74989  
     axis 0 0 0   XYZ 
    dof ry rz
    limits (-10.0 20.0)
           (-20.0 0.0)
  end
  begin
     id 25 
     name rhumerus
     direction -1 -4.48985e-011 2.38206e-027  
     length 4.61118   
     axis 180 30 90   XYZ
    dof rx ry rz
    limits (-90.0 60.0)
           (-90.0 90.0)
           (-90.0 90.0)
  end
  begin
     id 26 
     name rradius
     direction -1 -4.48977e-011 7.41019e-027   
     length 2.91491   
     axis 180 30 90   XYZ
    dof rx
    limits (-10.0 170.0)
  end
  begin
     id 27 
     name rwrist
     direction -1 -4.48549e-011 1.3624e-026   
     length 1.45745   
     axis -1.00488e-014 -90 -90   XYZ
    dof ry
    limits (-180.0 0.0)
  end
  begin
     id 28
     name rhand
     direction -1 -4.49107e-011 2.72109e-026   
     length 1.30769   
     axis -1.73687e-014 -90 -90   XYZ
    dof rx rz
    limits (-90.0 90.0)
           (-45.0 45.0)
  end
  begin
     id 29
     name rfingers
     direction -1 -4.48919e-011 5.44468e-026   
     length 1.05429   
     axis -3.47372e-014 -90 -90   XYZ
    dof rx
    limits (0.0 90.0)
  end
  begin
     id 30
     name rthumb
     direction -0.707107 -6.35315e-011 0.707107   
     length 1.51376   
     axis -90 -45 1.62303e-014   XYZ
    dof rx rz
    limits (-45.0 45.0)
           (-45.0 45.0)
  end
:hierarchy
  begin
    root lhipjoint rhipjoint lowerback
    lhipjoint lfemur
    lfemur ltibia
    ltibia lfoot
    lfoot ltoes
    rhipjoint rfemur
    rfemur rtibia
    rtibia rfoot
    rfoot rtoes
    lowerback upperback
    upperback thorax
    thorax lowerneck lclavicle rclavicle
    lowerneck upperneck
    upperneck head
    lclavicle lhumerus
    lhumerus lradius
    lradius lwrist
    lwrist lhand lthumb
    lhand lfingers
    rclavicle rhumerus
    rhumerus rradius
    rradius rwrist
    rwrist rhand rthumb
    rhand rfingers
  end

#!OML:ASF X:\für Bonn\!DataBase\2005_08_11_Bastian_Final\c3d\Bastian.ASF
:FULLY-SPECIFIED
:DEGREES
18
root 1.0533 18.0221 3.17377 178.295 -7.04812 -176.255
lowerback 16.0773 -1.31424 4.21555
upperback 8.54278 -2.5699 1.96549
thorax 0.0392389 -1.79896 0.0866231
lowerneck -21.6071 -6.66731 -1.37507
upperneck -7.20896 -10.785 13.34
head 2.04436 -5.82517 3.41285
rclavicle 1.15295e-014 -1.59028e-014
rhumerus 54.0344 40.225 -46.2385
rradius 41.8785
rwrist -50.9006
rhand -45.2011 -13.2046
rfingers 7.12502
rthumb -17.9772 -42.3938
lclavicle 1.15295e-014 -1.59028e-014
lhumerus -292.292 -57.0756 395.901
lradius 36.9403
lwrist 35.726
lhand -42.9226 17.2599
lfingers 7.12502
lthumb -15.7838 46.6364
rfemur -1.44598 3.25756 24.9986
rtibia 28.3709
rfoot -11.1649 -18.4716
rtoes -5.1676
lfemur 1.18708 0.306029 -13.5579
ltibia 20.4451
lfoot -4.64108 -6.35172
ltoes -15.543
19
root 1.04709 18.0425 3.16214 178.185 -7.09854 -176.203
lowerback 15.8388 -1.36549 4.28448
upperback 8.31075 -2.5701 1.9881
thorax -0.0862559 -1.77576 0.0688631
lowerneck -20.8483 -6.81983 -1.67434
upperneck -6.53784 -10.7893 13.4337
head 2.16738 -5.7344 3.49089
rclavicle 2.90226e-014 -2.80286e-014
rhumerus 57.1345 37.7626 -44.1807
rradius 42.1176
rwrist -45.5398
rhand -43.7257 -13.9863
rfingers 7.12502
rthumb -16.5571 -43.3
lclavicle 2.90226e-014 -2.80286e-014
lhumerus -288.229 -54.2424 392.229
lradius 38.3403
lwrist 34.5054
lhand -43.7218 16.8484
lfingers 7.12502
lthumb -16.5534 46.1624
rfemur -1.47301 3.11876 24.9968
rtibia 28.5634
rfoot -10.694 -18.369
rtoes -5.75688
lfemur 1.39552 0.151321 -13.5534
ltibia 20.2306
lfoot -4.24083 -6.15332
ltoes -16.4459
20
root 1.04073 18.0694 3.14525 178.055 -7.14229 -176.083
lowerback 15.6114 -1.42713 4.43519
upperback 8.0463 -2.56771 2.02132
thorax -0.252937 -1.74884 0.0174453
lowerneck -19.9125 -6.97279 -2.02764
upperneck -5.94923 -10.7878 13.5689
head 2.24334 -5.65327 3.59843
rclavicle 1.39149e-014 -2.04748e-014
rhumerus 60.0585 35.0928 -42.1826
rradius 42.3204
rwrist -41.1711
rhand -42.6714 -14.1635
rfingers 7.12502
rthumb -15.5419 -43.5589
lclavicle 1.39149e-014 -2.04748e-014
lhumerus -285.412 -51.1645 389.711
lradius 39.6787
lwrist 33.3926
lhand -44.4679 16.1629
lfingers 7.12502
lthumb -17.2716 45.4155
rfemur -1.55882 2.9224 25.0392
rtibia 28.8931
rfoot -10.2298 -18.131
rtoes -5.87258
lfemur 1.69402 -0.0562141 -13.4762
ltibia 19.8825
lfoot -3.71989 -5.93218
ltoes -17.1884
21
root 1.03438 18.1033 3.1237 177.903 -7.20262 -175.939
lowerback 15.4123 -1.50694 4.62635
upperback 7.75314 -2.5788 2.05338
thorax -0.465986 -1.72802 -0.0536181
lowerneck -18.8618 -7.10153 -2.38325
upperneck -5.40932 -10.7657 13.7015
head 2.28335 -5.57377 3.7133
rclavicle -1.41137e-014 3.02153e-014
rhumerus 62.8115 32.2453 -40.2582
rradius 42.5591
rwrist -38.1941
rhand -42.2149 -13.6381
rfingers 7.12502
rthumb -15.1022 -43.0671
lclavicle -1.41137e-014 3.02153e-014
lhumerus -283.999 -48.0682 388.712
lradius 40.8181
lwrist 31.8298
lhand -45.1271 15.2681
lfingers 7.12502
lthumb -17.9059 44.4638
rfemur -1.70912 2.55528 25.0703
rtibia 29.3802
rfoot -9.68701 -17.7081
rtoes -5.28364
lfemur 2.09158 -0.292647 -13.3768
ltibia 19.4051
lfoot -3.14836 -5.72116
ltoes -18.5321
22
root 1.02755 18.1417 3.09727 177.748 -7.25516 -175.796
lowerback 15.2135 -1.59437 4.80658
upperback 7.44445 -2.601 2.10053
thorax -0.694619 -1.71452 -0.100617
lowerneck -17.6922 -7.20302 -2.7998
upperneck -4.96508 -10.7097 13.8579
head 2.27577 -5.4923 3.85497
rclavicle -1.33186e-014 -1.88845e-014
rhumerus 65.4177 29.2647 -38.4859
rradius 42.821
rwrist -36.7797
rhand -42.4056 -12.3407
rfingers 7.12502
rthumb -15.2859 -41.7558
lclavicle -1.33186e-014 -1.88845e-014
lhumerus -282.283 -44.9018 386.87
lradius 41.6568
lwrist 31.0654
lhand -46.0662 14.1684
lfingers 7.12502
lthumb -18.8094 43.279
rfemur -1.93981 2.01109 25.0441
rtibia 30.0251
rfoot -9.08904 -17.043
rtoes -4.22635
lfemur 2.54787 -0.589973 -13.2944
ltibia 18.8655
lfoot -2.53561 -5.42712
ltoes -19.882
23
root 1.02231 18.1824 3.06538 177.59 -7.34629 -175.63
lowerback 14.9573 -1.70425 4.9903
upperback 7.13036 -2.65583 2.15571
thorax -0.899188 -1.71744 -0.138456
lowerneck -16.4366 -7.26037 -3.16565
upperneck -4.56725 -10.6198 13.9701
head 2.22891 -5.4073 3.98372
rclavicle -9.44227e-015 -1.09332e-014
rhumerus 67.8568 26.2159 -36.7853
rradius 43.2287
rwrist -37.1479
rhand -43.2049 -10.2424
rfingers 7.12502
rthumb -16.0557 -39.5972
lclavicle -9.44227e-015 -1.09332e-014
lhumerus -280.538 -41.6212 384.491
lradius 42.2251
lwrist 30.8079
lhand -47.1758 13.1035
lfingers 7.12502
lthumb -19.8763 42.1071
rfemur -2.24562 1.41149 25.0349
rtibia 30.823
rfoot -8.29936 -16.269
rtoes -2.95132
lfemur 2.98314 -0.907388 -13.1737
ltibia 18.3799
lfoot -1.91421 -5.17543
ltoes -20.9717
24
root 1.0177 18.2194 3.02955 177.41 -7.41985 -175.439
lowerback 14.7307 -1.81765 5.20683
upperback 6.81261 -2.71266 2.20434
thorax -1.12415 -1.72301 -0.199756
lowerneck -15.1119 -7.28431 -3.50109
upperneck -4.2642 -10.5086 14.0747
head 2.13514 -5.32781 4.11268
rclavicle 9.83984e-015 -1.5704e-014
rhumerus 69.8959 23.1473 -35.2362
rradius 43.9966
rwrist -38.8959
rhand -44.3423 -7.56826
rfingers 7.12502
rthumb -17.1507 -36.8313
lclavicle 9.83984e-015 -1.5704e-014
lhumerus -279.202 -38.2673 382.278
lradius 42.4782
lwrist 30.4232
lhand -48.1781 12.2854
lfingers 7.12502
lthumb -20.8395 41.1862
rfemur -2.61184 0.636587 25.0005
rtibia 31.7542
rfoot -7.31364 -15.2216
rtoes -2.05338
lfemur 3.37406 -1.18511 -13.0147
ltibia 18.0648
lfoot -1.33573 -4.95765
ltoes -21.9835
25
root 1.01436 18.2494 2.98878 177.246 -7.49497 -175.251
lowerback 14.4556 -1.92431 5.40347
upperback 6.49353 -2.76753 2.25565
thorax -1.32372 -1.7285 -0.249727
lowerneck -13.7078 -7.27656 -3.78739
upperneck -4.06253 -10.3763 14.1545
head 1.98875 -5.25363 4.23408
rclavicle 9.83984e-015 -4.57205e-015
rhumerus 71.4583 20.0955 -34.1416
rradius 44.8194
rwrist -41.3787
rhand -45.421 -4.29225
rfingers 7.12502
rthumb -18.1887 -33.4618
lclavicle 9.83984e-015 -4.57205e-015
lhumerus -278.564 -34.9882 380.932
lradius 42.3465
lwrist 29.2968
lhand -48.8117 11.7492
lfingers 7.12502
lthumb -21.4482 40.5818
rfemur -3.04406 -0.11868 24.9703
rtibia 32.7647
rfoot -6.33235 -14.1375
rtoes -1.84466
lfemur 3.64653 -1.42553 -12.84
ltibia 18.003
lfoot -0.861602 -4.79511
ltoes -22.6791
26
root 1.01293 18.2719 2.94538 177.055 -7.592 -175.059
lowerback 14.2039 -2.05071 5.57037
upperback 6.18199 -2.85726 2.32558
thorax -1.52692 -1.75524 -0.257345
lowerneck -12.2642 -7.2387 -4.07933
upperneck -3.93906 -10.2138 14.1998
head 1.80435 -5.17528 4.35226
rclavicle 2.38542e-014 -4.31363e-014
rhumerus 72.6673 16.9793 -33.0657
rradius 45.7341
rwrist -44.4365
rhand -46.2243 -0.868626
rfingers 7.12502
rthumb -18.9614 -29.9644
lclavicle 2.38542e-014 -4.31363e-014
lhumerus -278.429 -31.6767 380.127
lradius 41.9382
lwrist 27.6385
lhand -49.0544 11.6005
lfingers 7.12502
lthumb -21.6813 40.4065
rfemur -3.47718 -0.821912 24.9635
rtibia 33.7667
rfoot -5.53786 -13.093
rtoes -2.19386
lfemur 3.83623 -1.63411 -12.6395
ltibia 18.1721
lfoot -0.499482 -4.71939
ltoes -23.4325
